<svg xmlns="http://www.w3.org/2000/svg" viewBox="0 0 320 100" width="320" height="100">
<rect width="320" height="100" fill="#000000"/>

    <rect x="18" y="16" width="84" height="14" rx="3" fill="#ffffff"/>
    <path d="M 48 30 L 48 76 Q 48 88 60 88 Q 72 88 72 76 L 72 30 Z" fill="#ffffff"/>
    <path d="M 53 76 L 59 82 L 68 69" stroke="#000000" stroke-width="4" stroke-linecap="round" stroke-linejoin="round" fill="none"/>

<g fill="#ffffff">
<g transform="translate(118.000 74.000) scale(0.01953 -0.01953)"><path d="M75 1237V1490H1292V1237H837V0H531V1237Z"/></g>
<g transform="translate(143.099 74.000) scale(0.01953 -0.01953)"><path d="M128 0V1118H418V923H430Q461 1027 533.5 1080.0Q606 1133 700 1133Q723 1133 750.0 1130.5Q777 1128 797 1123V855Q777 862 739.0 866.0Q701 870 667 870Q599 870 544.0 840.5Q489 811 458.5 758.5Q428 706 428 636V0Z"/></g>
<g transform="translate(157.788 74.000) scale(0.01953 -0.01953)"><path d="M513 -14Q397 -14 310.0 36.5Q223 87 175.5 181.5Q128 276 128 407V1118H428V459Q428 355 482.0 296.0Q536 237 630 237Q694 237 743.0 264.5Q792 292 819.5 344.5Q847 397 847 471V1118H1148V0H864L860 279H877Q833 138 742.5 62.0Q652 -14 513 -14Z"/></g>
<g transform="translate(181.091 74.000) scale(0.01953 -0.01953)"><path d="M633 -22Q462 -22 338.0 48.0Q214 118 147.5 247.0Q81 376 81 553Q81 726 147.0 856.0Q213 986 334.0 1059.0Q455 1132 618 1132Q728 1132 823.0 1097.0Q918 1062 990.0 991.5Q1062 921 1102.5 815.0Q1143 709 1143 565V481H204V669H996L856 619Q856 706 829.5 770.5Q803 835 750.5 870.5Q698 906 621 906Q543 906 488.5 870.0Q434 834 406.0 772.5Q378 711 378 632V499Q378 402 410.5 336.0Q443 270 501.5 237.0Q560 204 638 204Q691 204 734.0 219.0Q777 234 807.5 263.5Q838 293 854 336L1126 285Q1099 193 1032.0 123.5Q965 54 864.5 16.0Q764 -22 633 -22Z"/></g>
<g transform="translate(203.319 74.000) scale(0.01953 -0.01953)"><path d="M135 0V1490H440V253H1083V0Z"/></g>
<g transform="translate(224.336 74.000) scale(0.01953 -0.01953)"><path d="M440 -22Q334 -22 249.5 15.5Q165 53 116.5 127.5Q68 202 68 313Q68 406 102.5 469.0Q137 532 196.5 570.0Q256 608 331.5 628.0Q407 648 490 656Q587 666 646.5 674.5Q706 683 733.5 701.5Q761 720 761 756V761Q761 809 741.0 842.0Q721 875 681.5 892.5Q642 910 586 910Q528 910 485.0 892.5Q442 875 415.0 846.0Q388 817 375 781L100 826Q129 924 196.0 992.0Q263 1060 362.5 1096.0Q462 1132 587 1132Q677 1132 762.0 1110.5Q847 1089 914.5 1044.0Q982 999 1021.5 926.5Q1061 854 1061 753V0H777V155H767Q740 103 695.0 63.5Q650 24 586.5 1.0Q523 -22 440 -22ZM525 189Q596 189 649.5 217.0Q703 245 733.0 293.0Q763 341 763 400V521Q750 511 723.0 503.0Q696 495 663.0 489.0Q630 483 598.0 478.0Q566 473 541 470Q486 462 444.0 444.0Q402 426 379.0 396.5Q356 367 356 321Q356 278 378.0 248.5Q400 219 438.0 204.0Q476 189 525 189Z"/></g>
<g transform="translate(245.959 74.000) scale(0.01953 -0.01953)"><path d="M754 -19Q663 -19 600.0 12.0Q537 43 497.5 88.5Q458 134 437 179H423V0H128V1490H428V930H437Q458 974 496.5 1021.0Q535 1068 598.0 1100.0Q661 1132 756 1132Q880 1132 983.0 1068.0Q1086 1004 1147.5 876.0Q1209 748 1209 557Q1209 371 1149.0 242.5Q1089 114 986.0 47.5Q883 -19 754 -19ZM662 222Q740 222 793.5 265.0Q847 308 874.5 384.0Q902 460 902 558Q902 656 874.5 731.0Q847 806 794.0 849.0Q741 892 662 892Q585 892 531.0 850.5Q477 809 449.0 734.5Q421 660 421 558Q421 457 449.5 381.5Q478 306 532.0 264.0Q586 222 662 222Z"/></g>
</g>
</svg>
